<svg width="157" height="35" viewBox="0 0 157 35" fill="none" xmlns="http://www.w3.org/2000/svg">
<circle cx="75" cy="17" r="17" fill="#F9CADA"/>
<path d="M0.496 6.196H8.896V7.932L6.46 8.296L9.988 20.924L10.632 24.032L11.276 20.924L14.272 10.676L13.488 8.296L11.64 7.932V6.196H20.404V7.932L17.716 8.296L21.216 20.924L21.972 24.284L22.56 20.924L25.752 8.296L23.232 7.932V6.196H29.98V7.932L28.188 8.296L22.868 27.14H19.172L15.308 14.064L11.612 27.14H7.972L2.204 8.324L0.496 7.932V6.196ZM30.4168 22.632C30.4168 20.9333 31.2662 19.6547 32.9648 18.796C34.6822 17.9373 36.8942 17.4987 39.6008 17.48V16.836C39.6008 16.0707 39.5168 15.4733 39.3488 15.044C39.1995 14.6147 38.9102 14.2973 38.4808 14.092C38.0702 13.868 37.4635 13.756 36.6608 13.756C35.7462 13.756 34.9248 13.8773 34.1968 14.12C33.4688 14.344 32.7128 14.6427 31.9288 15.016L31.0608 13.224C31.3408 12.9813 31.8075 12.692 32.4608 12.356C33.1328 12.02 33.9262 11.7307 34.8408 11.488C35.7555 11.2267 36.6982 11.096 37.6688 11.096C39.1062 11.096 40.2262 11.2827 41.0288 11.656C41.8502 12.0293 42.4382 12.6267 42.7928 13.448C43.1475 14.2693 43.3248 15.3707 43.3248 16.752V25.32H44.8368V26.888C44.4635 26.9813 43.9315 27.0747 43.2408 27.168C42.5502 27.2613 41.9435 27.308 41.4208 27.308C40.7862 27.308 40.3568 27.2147 40.1328 27.028C39.9275 26.8413 39.8248 26.4587 39.8248 25.88V25.124C39.3208 25.684 38.6675 26.188 37.8648 26.636C37.0622 27.084 36.1568 27.308 35.1488 27.308C34.2902 27.308 33.4968 27.1307 32.7688 26.776C32.0595 26.4027 31.4902 25.8707 31.0608 25.18C30.6315 24.4707 30.4168 23.6213 30.4168 22.632ZM36.9408 24.984C37.3328 24.984 37.7808 24.872 38.2848 24.648C38.7888 24.4053 39.2275 24.116 39.6008 23.78V19.188C37.9208 19.188 36.6608 19.4773 35.8208 20.056C34.9995 20.616 34.5888 21.344 34.5888 22.24C34.5888 23.136 34.7942 23.8173 35.2048 24.284C35.6342 24.7507 36.2128 24.984 36.9408 24.984ZM46.5842 25.348L48.4322 25.124V14.092L46.6402 13.588V11.656L50.9802 11.068H51.0642L51.7642 11.628V12.244L51.6802 14.512H51.7642C51.8949 14.1387 52.2029 13.6813 52.6882 13.14C53.1736 12.58 53.7802 12.0947 54.5082 11.684C55.2549 11.2547 56.0576 11.04 56.9162 11.04C57.3269 11.04 57.6816 11.096 57.9802 11.208V15.408C57.4202 15.016 56.7389 14.82 55.9362 14.82C54.5736 14.82 53.3882 15.184 52.3802 15.912V25.096L55.6282 25.348V27H46.5842V25.348ZM65.6159 27.308C64.4586 27.308 63.4226 27.0373 62.5079 26.496C61.5932 25.936 60.8652 25.0773 60.3239 23.92C59.7826 22.7627 59.5119 21.316 59.5119 19.58C59.5119 18.012 59.8292 16.584 60.4639 15.296C61.1172 13.9893 62.0692 12.9533 63.3199 12.188C64.5706 11.4227 66.0732 11.04 67.8279 11.04C68.5372 11.04 69.2092 11.1147 69.8439 11.264V6.532L67.0999 6.14V4.6L72.8679 4.04H72.9519L73.7359 4.628V25.292H75.2479V26.888C73.9039 27.168 72.7932 27.308 71.9159 27.308C71.3186 27.308 70.8892 27.2053 70.6279 27C70.3852 26.8133 70.2639 26.4307 70.2639 25.852V25.068C69.7786 25.7213 69.1159 26.2627 68.2759 26.692C67.4359 27.1027 66.5492 27.308 65.6159 27.308ZM67.0719 24.984C67.6879 24.984 68.2292 24.8627 68.6959 24.62C69.1812 24.3587 69.5639 24.0507 69.8439 23.696V13.504C69.7132 13.3173 69.4332 13.1587 69.0039 13.028C68.5932 12.8973 68.1452 12.832 67.6599 12.832C66.4652 12.832 65.5039 13.3547 64.7759 14.4C64.0666 15.4267 63.7119 17.0787 63.7119 19.356C63.7119 21.26 64.0199 22.6787 64.6359 23.612C65.2519 24.5267 66.0639 24.984 67.0719 24.984ZM84.3473 27.308C83.3393 27.308 82.4339 27.224 81.6313 27.056C80.8286 26.888 79.9326 26.664 78.9433 26.384C78.2899 26.1973 77.8513 26.0947 77.6273 26.076L77.8792 20.896H80.1472L80.7633 24.508C81.0059 24.7693 81.4353 25.0027 82.0513 25.208C82.6859 25.4133 83.4046 25.516 84.2073 25.516C85.4579 25.516 86.3913 25.2453 87.0073 24.704C87.6419 24.144 87.9593 23.3693 87.9593 22.38C87.9593 21.7267 87.7726 21.1667 87.3993 20.7C87.0259 20.2147 86.5126 19.7853 85.8593 19.412C85.2059 19.02 84.3099 18.572 83.1713 18.068C81.6219 17.3587 80.3339 16.5187 79.3073 15.548C78.2993 14.5587 77.7953 13.224 77.7953 11.544C77.7953 10.4987 78.0659 9.556 78.6073 8.716C79.1486 7.85733 79.9513 7.18533 81.0153 6.7C82.0979 6.196 83.4139 5.944 84.9633 5.944C85.8779 5.944 86.6806 6.00933 87.3713 6.14C88.0806 6.27067 88.8459 6.448 89.6673 6.672C90.1526 6.80267 90.5166 6.88667 90.7593 6.924L90.5913 11.824H88.3513L87.7633 8.38C87.5953 8.212 87.2593 8.05333 86.7553 7.904C86.2513 7.736 85.6913 7.652 85.0753 7.652C83.9553 7.652 83.1059 7.91333 82.5273 8.436C81.9673 8.94 81.6873 9.62133 81.6873 10.48C81.6873 11.1707 81.8926 11.768 82.3033 12.272C82.7326 12.776 83.2459 13.2053 83.8433 13.56C84.4406 13.896 85.3833 14.3813 86.6713 15.016C87.7166 15.52 88.6126 16.0147 89.3593 16.5C90.1059 16.9853 90.7499 17.62 91.2913 18.404C91.8326 19.1693 92.1033 20.0747 92.1033 21.12C92.1033 22.1467 91.8419 23.1267 91.3193 24.06C90.8153 24.9933 89.9753 25.768 88.7993 26.384C87.6419 27 86.1579 27.308 84.3473 27.308ZM109.646 18.712C109.646 20.28 109.32 21.7173 108.666 23.024C108.032 24.3307 107.089 25.376 105.838 26.16C104.606 26.9253 103.132 27.308 101.414 27.308C101.041 27.308 100.649 27.2707 100.238 27.196C99.8463 27.14 99.529 27.0653 99.2863 26.972L99.3703 29.296V31.844L101.974 32.18V33.776H93.6583V32.18L95.4783 31.844V14.092L93.6583 13.588V11.656L98.2783 11.068H98.3343L99.0343 11.628V13.196C99.501 12.6173 100.136 12.1133 100.938 11.684C101.741 11.2547 102.618 11.04 103.57 11.04C105.344 11.04 106.8 11.6747 107.938 12.944C109.077 14.1947 109.646 16.1173 109.646 18.712ZM102.114 13.364C101.554 13.364 101.022 13.4853 100.518 13.728C100.014 13.9707 99.6317 14.2413 99.3703 14.54V24.928C99.501 25.1147 99.7623 25.2733 100.154 25.404C100.565 25.5347 101.013 25.6 101.498 25.6C102.712 25.6 103.673 25.0773 104.382 24.032C105.11 22.968 105.474 21.3067 105.474 19.048C105.474 17.144 105.166 15.7253 104.55 14.792C103.934 13.84 103.122 13.364 102.114 13.364ZM111.628 22.632C111.628 20.9333 112.477 19.6547 114.176 18.796C115.893 17.9373 118.105 17.4987 120.812 17.48V16.836C120.812 16.0707 120.728 15.4733 120.56 15.044C120.41 14.6147 120.121 14.2973 119.692 14.092C119.281 13.868 118.674 13.756 117.872 13.756C116.957 13.756 116.136 13.8773 115.408 14.12C114.68 14.344 113.924 14.6427 113.14 15.016L112.272 13.224C112.552 12.9813 113.018 12.692 113.672 12.356C114.344 12.02 115.137 11.7307 116.052 11.488C116.966 11.2267 117.909 11.096 118.88 11.096C120.317 11.096 121.437 11.2827 122.24 11.656C123.061 12.0293 123.649 12.6267 124.004 13.448C124.358 14.2693 124.536 15.3707 124.536 16.752V25.32H126.048V26.888C125.674 26.9813 125.142 27.0747 124.452 27.168C123.761 27.2613 123.154 27.308 122.632 27.308C121.997 27.308 121.568 27.2147 121.344 27.028C121.138 26.8413 121.036 26.4587 121.036 25.88V25.124C120.532 25.684 119.878 26.188 119.076 26.636C118.273 27.084 117.368 27.308 116.36 27.308C115.501 27.308 114.708 27.1307 113.98 26.776C113.27 26.4027 112.701 25.8707 112.272 25.18C111.842 24.4707 111.628 23.6213 111.628 22.632ZM118.152 24.984C118.544 24.984 118.992 24.872 119.496 24.648C120 24.4053 120.438 24.116 120.812 23.78V19.188C119.132 19.188 117.872 19.4773 117.032 20.056C116.21 20.616 115.8 21.344 115.8 22.24C115.8 23.136 116.005 23.8173 116.416 24.284C116.845 24.7507 117.424 24.984 118.152 24.984ZM127.431 19.3C127.431 17.6947 127.748 16.2667 128.383 15.016C129.036 13.7653 129.96 12.7947 131.155 12.104C132.368 11.3947 133.778 11.04 135.383 11.04C136.13 11.04 136.774 11.096 137.315 11.208C137.856 11.32 138.463 11.4693 139.135 11.656L139.947 11.88L139.779 16.668H137.343L136.643 13.588C136.531 13.1027 135.98 12.86 134.991 12.86C133.946 12.86 133.124 13.3173 132.527 14.232C131.948 15.1467 131.65 16.5747 131.631 18.516C131.631 20.5693 131.986 22.1467 132.695 23.248C133.404 24.3307 134.347 24.872 135.523 24.872C136.942 24.872 138.248 24.4893 139.443 23.724L140.087 25.18C139.602 25.7027 138.855 26.188 137.847 26.636C136.858 27.084 135.784 27.308 134.627 27.308C132.238 27.308 130.436 26.5707 129.223 25.096C128.028 23.6213 127.431 21.6893 127.431 19.3ZM149.371 27.308C146.907 27.308 145.068 26.5893 143.855 25.152C142.66 23.696 142.063 21.7173 142.063 19.216C142.063 17.536 142.371 16.08 142.987 14.848C143.621 13.616 144.508 12.6733 145.647 12.02C146.785 11.3667 148.101 11.04 149.595 11.04C151.461 11.04 152.899 11.5347 153.907 12.524C154.915 13.4947 155.437 14.8853 155.475 16.696C155.475 17.928 155.4 18.8427 155.251 19.44H146.151C146.225 21.1387 146.627 22.464 147.355 23.416C148.083 24.3493 149.119 24.816 150.463 24.816C151.191 24.816 151.937 24.6947 152.703 24.452C153.487 24.2093 154.103 23.92 154.551 23.584L155.251 25.124C154.747 25.6653 153.925 26.1693 152.787 26.636C151.667 27.084 150.528 27.308 149.371 27.308ZM151.555 17.76C151.592 17.2373 151.611 16.836 151.611 16.556C151.611 14.0733 150.78 12.832 149.119 12.832C148.204 12.832 147.495 13.196 146.991 13.924C146.487 14.652 146.207 15.9307 146.151 17.76H151.555Z" fill="black"/>
</svg>
